<svg xmlns="http://www.w3.org/2000/svg" xmlns:svg="http://www.w3.org/2000/svg" xmlns:xlink="http://www.w3.org/1999/xlink" id="svg5" width="48" height="48" version="1.1" viewBox="0 0 12.7 12.7" xml:space="preserve"><defs id="defs2"><linearGradient id="linearGradient51996"><stop style="stop-color:#ff0c0c;stop-opacity:1" id="stop51992" offset="0"/><stop style="stop-color:#ffc402;stop-opacity:1" id="stop51994" offset="1"/></linearGradient><linearGradient id="linearGradient51998" x1="78.573" x2="78.606" y1="121.573" y2="123.67" gradientUnits="userSpaceOnUse" xlink:href="#linearGradient51996"/><linearGradient id="linearGradient1071" x1="78.573" x2="78.606" y1="121.573" y2="123.67" gradientUnits="userSpaceOnUse" xlink:href="#linearGradient51996"/><linearGradient id="linearGradient1073" x1="78.573" x2="78.606" y1="121.573" y2="123.67" gradientUnits="userSpaceOnUse" xlink:href="#linearGradient51996"/><linearGradient id="linearGradient1075" x1="78.573" x2="78.58" y1="121.573" y2="124.252" gradientUnits="userSpaceOnUse" xlink:href="#linearGradient51996"/><linearGradient id="linearGradient1077" x1="78.573" x2="78.606" y1="121.573" y2="123.67" gradientUnits="userSpaceOnUse" xlink:href="#linearGradient51996"/><linearGradient id="linearGradient1079" x1="78.573" x2="78.606" y1="121.573" y2="123.67" gradientUnits="userSpaceOnUse" xlink:href="#linearGradient51996"/><linearGradient id="linearGradient1081" x1="78.573" x2="78.606" y1="121.573" y2="123.67" gradientUnits="userSpaceOnUse" xlink:href="#linearGradient51996"/><linearGradient id="linearGradient1083" x1="78.573" x2="78.606" y1="121.573" y2="123.67" gradientUnits="userSpaceOnUse" xlink:href="#linearGradient51996"/><linearGradient id="linearGradient1085" x1="78.573" x2="78.606" y1="121.573" y2="123.67" gradientUnits="userSpaceOnUse" xlink:href="#linearGradient51996"/><linearGradient id="linearGradient1087" x1="78.573" x2="78.606" y1="121.573" y2="123.67" gradientUnits="userSpaceOnUse" xlink:href="#linearGradient51996"/><linearGradient id="linearGradient1089" x1="78.573" x2="78.606" y1="121.573" y2="123.67" gradientUnits="userSpaceOnUse" xlink:href="#linearGradient51996"/><linearGradient id="linearGradient1091" x1="78.573" x2="78.606" y1="121.573" y2="123.67" gradientUnits="userSpaceOnUse" xlink:href="#linearGradient51996"/><linearGradient id="linearGradient1093" x1="78.573" x2="78.606" y1="121.573" y2="123.67" gradientUnits="userSpaceOnUse" xlink:href="#linearGradient51996"/><linearGradient id="linearGradient1095" x1="78.573" x2="78.606" y1="121.573" y2="123.67" gradientUnits="userSpaceOnUse" xlink:href="#linearGradient51996"/><linearGradient id="linearGradient1097" x1="78.573" x2="78.606" y1="121.573" y2="123.67" gradientUnits="userSpaceOnUse" xlink:href="#linearGradient51996"/><linearGradient id="linearGradient1099" x1="78.573" x2="78.606" y1="121.573" y2="123.67" gradientUnits="userSpaceOnUse" xlink:href="#linearGradient51996"/><linearGradient id="linearGradient1101" x1="78.573" x2="78.606" y1="121.573" y2="123.67" gradientUnits="userSpaceOnUse" xlink:href="#linearGradient51996"/></defs><g id="layer1"><path style="fill:#ee2349;fill-opacity:1;stroke-width:.264583" id="path36791-6" d="m 78.679688,115.50977 c -0.120712,0.0641 -0.42793,0.23077 -0.582032,0.34961 -0.183353,0.14139 -0.341667,0.2967 -0.496094,0.48632 -0.09316,0.11439 -0.175141,0.29861 -0.208984,0.46485 -0.05593,0.27473 -0.01958,0.56221 0.01953,0.83984 0.0674,0.47849 0.369141,1.40234 0.369141,1.40234 0,0 -0.370215,0.25236 -0.529297,0.40821 -0.08369,0.082 -0.134669,0.16526 -0.179687,0.27344 -0.06269,0.15064 -0.0906,0.32319 -0.09375,0.48632 -0.0016,0.0822 0.01367,0.26563 0.01367,0.26563 -10e-7,0 0.365376,-0.37098 0.609374,-0.45117 0.135542,-0.0445 0.296791,-0.0606 0.427735,-0.004 0.05341,0.0231 0.05909,0.12539 0.117187,0.12891 0.134803,0.008 0.418285,0.003 0.533204,0 0.114918,0.003 0.3984,0.008 0.533203,0 0.05809,-0.004 0.06378,-0.10581 0.117187,-0.12891 0.130944,-0.0567 0.294146,-0.0406 0.429688,0.004 0.243998,0.0802 0.607422,0.45117 0.607422,0.45117 0,0 0.01722,-0.18343 0.01562,-0.26563 -0.0031,-0.16313 -0.03106,-0.33569 -0.09375,-0.48632 -0.04502,-0.10818 -0.09795,-0.19144 -0.18164,-0.27344 -0.159082,-0.15585 -0.529297,-0.40821 -0.529297,-0.40821 0,0 0.303694,-0.92385 0.371094,-1.40234 0.03911,-0.27763 0.07351,-0.56511 0.01758,-0.83984 -0.03384,-0.16624 -0.115825,-0.35046 -0.208985,-0.46485 -0.154426,-0.18962 -0.31274,-0.34493 -0.496093,-0.48632 -0.154102,-0.11884 -0.46132,-0.28549 -0.582031,-0.34961 z" class="UnoptimicedTransforms" transform="matrix(-1.5867841,0,0,1.5867841,131.19823,-183.26425)"/><circle style="fill:#fff;fill-opacity:1;stroke-width:.461723" id="path37027" cx="6.346" cy="2.394" r="1.245"/><circle style="font-variation-settings:normal;vector-effect:none;fill:#ffc402;fill-opacity:1;stroke-width:.141574;stroke-linecap:butt;stroke-linejoin:miter;stroke-miterlimit:4;stroke-dasharray:none;stroke-dashoffset:0;stroke-opacity:1;-inkscape-stroke:none;stop-color:#000" id="path37568-5-9-1-3-6-1" cx="6.536" cy="12.559" r=".116"/><g id="g51228" style="fill:url(#linearGradient51998);fill-opacity:1" transform="matrix(1.5867841,0,0,1.5867841,-120.3592,-185.13424)"><circle style="fill:url(#linearGradient1071);fill-opacity:1;stroke-width:.224809" id="path37568" cx="79.22" cy="121.776" r=".184"/><circle style="font-variation-settings:normal;opacity:1;vector-effect:none;fill:url(#linearGradient1073);fill-opacity:1;stroke-width:.377183;stroke-linecap:butt;stroke-linejoin:miter;stroke-miterlimit:4;stroke-dasharray:none;stroke-dashoffset:0;stroke-opacity:1;-inkscape-stroke:none;stop-color:#000;stop-opacity:1" id="path37568-5" cx="79.929" cy="121.811" r=".309"/><circle style="font-variation-settings:normal;vector-effect:none;fill:url(#linearGradient1075);fill-opacity:1;stroke-width:.518098;stroke-linecap:butt;stroke-linejoin:miter;stroke-miterlimit:4;stroke-dasharray:none;stroke-dashoffset:0;stroke-opacity:1;-inkscape-stroke:none;stop-color:#000" id="path37568-5-9" cx="79.266" cy="122.343" r=".424"/><circle style="font-variation-settings:normal;vector-effect:none;fill:url(#linearGradient1077);fill-opacity:1;stroke-width:.194865;stroke-linecap:butt;stroke-linejoin:miter;stroke-miterlimit:4;stroke-dasharray:none;stroke-dashoffset:0;stroke-opacity:1;-inkscape-stroke:none;stop-color:#000" id="path37568-5-9-8" cx="78.911" cy="122.556" r=".16"/><circle style="font-variation-settings:normal;vector-effect:none;fill:url(#linearGradient1079);fill-opacity:1;stroke-width:.317766;stroke-linecap:butt;stroke-linejoin:miter;stroke-miterlimit:4;stroke-dasharray:none;stroke-dashoffset:0;stroke-opacity:1;-inkscape-stroke:none;stop-color:#000" id="path37568-5-9-1" cx="79.634" cy="122.877" r=".26"/><circle style="font-variation-settings:normal;vector-effect:none;fill:url(#linearGradient1081);fill-opacity:1;stroke-width:.378906;stroke-linecap:butt;stroke-linejoin:miter;stroke-miterlimit:4;stroke-dasharray:none;stroke-dashoffset:0;stroke-opacity:1;-inkscape-stroke:none;stop-color:#000" id="path37568-5-9-1-3" cx="80.266" cy="123.655" r=".31"/><circle style="font-variation-settings:normal;vector-effect:none;fill:url(#linearGradient1083);fill-opacity:1;stroke-width:.177006;stroke-linecap:butt;stroke-linejoin:miter;stroke-miterlimit:4;stroke-dasharray:none;stroke-dashoffset:0;stroke-opacity:1;-inkscape-stroke:none;stop-color:#000" id="path37568-5-9-1-3-6" cx="79.915" cy="124.277" r=".145"/><circle style="font-variation-settings:normal;vector-effect:none;fill:url(#linearGradient1085);fill-opacity:1;stroke-width:.0989143;stroke-linecap:butt;stroke-linejoin:miter;stroke-miterlimit:4;stroke-dasharray:none;stroke-dashoffset:0;stroke-opacity:1;-inkscape-stroke:none;stop-color:#000" id="path37568-5-9-1-3-6-6" cx="80.206" cy="124.007" r=".081"/><circle style="font-variation-settings:normal;vector-effect:none;fill:url(#linearGradient1087);fill-opacity:1;stroke-width:.221224;stroke-linecap:butt;stroke-linejoin:miter;stroke-miterlimit:4;stroke-dasharray:none;stroke-dashoffset:0;stroke-opacity:1;-inkscape-stroke:none;stop-color:#000" id="path37568-5-9-1-3-6-0" cx="79.695" cy="123.764" r=".181"/><ellipse style="font-variation-settings:normal;vector-effect:none;fill:url(#linearGradient1089);fill-opacity:1;stroke-width:.271828;stroke-linecap:butt;stroke-linejoin:miter;stroke-miterlimit:4;stroke-dasharray:none;stroke-dashoffset:0;stroke-opacity:1;-inkscape-stroke:none;stop-color:#000" id="path37568-5-9-1-3-6-0-6" cx="79.605" cy="123.371" rx=".224" ry=".221"/><ellipse style="font-variation-settings:normal;vector-effect:none;fill:url(#linearGradient1091);fill-opacity:1;stroke-width:.271828;stroke-linecap:butt;stroke-linejoin:miter;stroke-miterlimit:4;stroke-dasharray:none;stroke-dashoffset:0;stroke-opacity:1;-inkscape-stroke:none;stop-color:#000" id="path37568-5-9-1-3-6-0-6-7" cx="79.846" cy="123.108" rx=".224" ry=".221"/><ellipse style="font-variation-settings:normal;vector-effect:none;fill:url(#linearGradient1093);fill-opacity:1;stroke-width:.244555;stroke-linecap:butt;stroke-linejoin:miter;stroke-miterlimit:4;stroke-dasharray:none;stroke-dashoffset:0;stroke-opacity:1;-inkscape-stroke:none;stop-color:#000" id="path37568-5-9-1-3-6-0-6-2" cx="79.248" cy="123.403" rx=".2" ry=".201"/><circle style="font-variation-settings:normal;vector-effect:none;fill:url(#linearGradient1095);fill-opacity:1;stroke-width:.243037;stroke-linecap:butt;stroke-linejoin:miter;stroke-miterlimit:4;stroke-dasharray:none;stroke-dashoffset:0;stroke-opacity:1;-inkscape-stroke:none;stop-color:#000" id="path37568-5-9-1-2" cx="80.334" cy="122.726" r=".199"/><circle style="font-variation-settings:normal;vector-effect:none;fill:url(#linearGradient1097);fill-opacity:1;stroke-width:.282009;stroke-linecap:butt;stroke-linejoin:miter;stroke-miterlimit:4;stroke-dasharray:none;stroke-dashoffset:0;stroke-opacity:1;-inkscape-stroke:none;stop-color:#000" id="path37568-5-9-1-2-0-9" cx="80.748" cy="122.349" r=".231"/><circle style="font-variation-settings:normal;vector-effect:none;fill:url(#linearGradient1099);fill-opacity:1;stroke-width:.313683;stroke-linecap:butt;stroke-linejoin:miter;stroke-miterlimit:4;stroke-dasharray:none;stroke-dashoffset:0;stroke-opacity:1;-inkscape-stroke:none;stop-color:#000" id="path37568-5-9-1-2-7" cx="80.588" cy="122.977" r=".257"/><circle style="fill:url(#linearGradient1101);fill-opacity:1;stroke-width:.426803" id="path37568-5-6" cx="80.423" cy="122.063" r=".349"/></g></g></svg>